<svg xmlns="http://www.w3.org/2000/svg" viewBox="0 0 228 223">
<g transform="translate(0,223) scale(0.1,-0.1)" fill="#FFFFFF" stroke="none">
<path d="M597 1825 c-53 -20 -122 -71 -151 -114 -56 -81 -56 -78 -56 -661 l0
-537 30 -61 c36 -71 82 -115 160 -151 l55 -26 514 -3 c449 -2 520 -1 569 13
102 30 180 101 217 198 14 37 15 109 13 592 l-3 550 -23 43 c-22 42 -96 122
-112 122 -5 0 -28 -33 -53 -72 -24 -40 -201 -329 -392 -643 -191 -314 -363
-595 -381 -625 l-34 -55 0 608 0 607 85 0 85 0 2 -300 3 -300 239 393 c132
215 246 402 254 415 l14 22 -498 -1 c-399 0 -507 -3 -537 -14z"/>
</g>
</svg>
