<?xml version="1.0" standalone="no"?>
<!DOCTYPE svg PUBLIC "-//W3C//DTD SVG 20010904//EN"
 "http://www.w3.org/TR/2001/REC-SVG-20010904/DTD/svg10.dtd">
<svg version="1.0" xmlns="http://www.w3.org/2000/svg"
 width="228.000000pt" height="223.000000pt" viewBox="0 0 228.000000 223.000000"
 preserveAspectRatio="xMidYMid meet">

<g transform="translate(0.000000,223.000000) scale(0.100000,-0.100000)"
fill="#000000" stroke="none">
<path d="M597 1825 c-53 -20 -122 -71 -151 -114 -56 -81 -56 -78 -56 -661 l0
-537 30 -61 c36 -71 82 -115 160 -151 l55 -26 514 -3 c449 -2 520 -1 569 13
102 30 180 101 217 198 14 37 15 109 13 592 l-3 550 -23 43 c-22 42 -96 122
-112 122 -5 0 -28 -33 -53 -72 -24 -40 -201 -329 -392 -643 -191 -314 -363
-595 -381 -625 l-34 -55 0 608 0 607 85 0 85 0 2 -300 3 -300 239 393 c132
215 246 402 254 415 l14 22 -498 -1 c-399 0 -507 -3 -537 -14z"/>
</g>
</svg>
